<svg width="19" height="19" viewBox="0 0 19 19" fill="none" xmlns="http://www.w3.org/2000/svg">
<path fill-rule="evenodd" clip-rule="evenodd" d="M14.2639 3.95833C14.0577 3.95833 13.8599 4.04027 13.714 4.18612L5.08649 12.8136C4.78212 13.118 4.56618 13.4994 4.46178 13.917L4.25471 14.7453L5.08301 14.5382C5.50061 14.4338 5.88199 14.2179 6.18636 13.9135L14.8139 5.28599C14.8861 5.21377 14.9434 5.12804 14.9825 5.03368C15.0216 4.93932 15.0417 4.83819 15.0417 4.73606C15.0417 4.63392 15.0216 4.53279 14.9825 4.43844C14.9434 4.34408 14.8861 4.25834 14.8139 4.18612C14.7417 4.1139 14.6559 4.05662 14.5616 4.01753C14.4672 3.97845 14.3661 3.95833 14.2639 3.95833ZM12.5944 3.06654C13.0372 2.62375 13.6378 2.375 14.2639 2.375C14.574 2.375 14.881 2.43607 15.1675 2.55472C15.4539 2.67338 15.7142 2.84729 15.9335 3.06654C16.1527 3.28578 16.3266 3.54606 16.4453 3.83252C16.5639 4.11898 16.625 4.426 16.625 4.73606C16.625 5.04612 16.5639 5.35314 16.4453 5.6396C16.3266 5.92605 16.1527 6.18633 15.9335 6.40558L7.30595 15.0331C6.79865 15.5404 6.16302 15.9003 5.46702 16.0743L3.35868 16.6014C3.0889 16.6688 2.80351 16.5898 2.60688 16.3931C2.41024 16.1965 2.33119 15.9111 2.39864 15.6413L2.92573 13.533C3.09973 12.837 3.45961 12.2013 3.96691 11.6941L12.5944 3.06654Z" fill="white"/>
<path fill-rule="evenodd" clip-rule="evenodd" d="M12.8985 8.47646L10.5235 6.10146L11.6431 4.98187L14.0181 7.35687L12.8985 8.47646Z" fill="white"/>
<path fill-rule="evenodd" clip-rule="evenodd" d="M9.5 15.8333C9.5 15.3961 9.85444 15.0417 10.2917 15.0417L15.8333 15.0417C16.2706 15.0417 16.625 15.3961 16.625 15.8333C16.625 16.2705 16.2706 16.625 15.8333 16.625L10.2917 16.625C9.85444 16.625 9.5 16.2705 9.5 15.8333Z" fill="white"/>
</svg>
